<svg width="101.000000" height="100.000000" viewBox="0 0 101 100" fill="none" xmlns="http://www.w3.org/2000/svg" xmlns:xlink="http://www.w3.org/1999/xlink">
	<desc>
			Created with Pixso.
	</desc>
	<defs>
		<clipPath id="clip2_507">
			<rect id="quote-left 1" width="100.000214" height="100.000000" transform="translate(-0.000183 0.000000) rotate(-0.000000)" fill="white" fill-opacity="0"/>
		</clipPath>
	</defs>
	<rect id="quote-left 1" width="100.000214" height="100.000000" transform="translate(-0.000183 0.000000) rotate(-0.000000)" fill="#FFFFFF" fill-opacity="0"/>
	<g clip-path="url(#clip2_507)">
		<path id="Vector" d="M34.61 46.15L21.15 46.15C19.55 46.15 18.18 45.59 17.06 44.47C15.94 43.34 15.38 41.98 15.38 40.38L15.38 38.46C15.38 34.21 16.88 30.58 19.89 27.58C22.89 24.58 26.52 23.07 30.76 23.07L34.61 23.07C35.65 23.07 36.55 22.69 37.31 21.93C38.08 21.17 38.46 20.27 38.46 19.23L38.46 11.53C38.46 10.49 38.08 9.59 37.31 8.83C36.55 8.07 35.65 7.69 34.61 7.69L30.76 7.69C26.6 7.69 22.62 8.5 18.84 10.12C15.05 11.74 11.77 13.94 9.01 16.7C6.24 19.47 4.05 22.74 2.43 26.53C0.81 30.31 -0.01 34.29 -0.01 38.46L-0.01 80.76C-0.01 83.97 1.12 86.69 3.36 88.94C5.6 91.18 8.33 92.3 11.53 92.3L34.61 92.3C37.82 92.3 40.54 91.18 42.78 88.94C45.03 86.69 46.15 83.97 46.15 80.76L46.15 57.69C46.15 54.48 45.03 51.76 42.78 49.51C40.54 47.27 37.81 46.15 34.61 46.15Z" fill="#151515" fill-opacity="1.000000" fill-rule="nonzero"/>
		<path id="Vector" d="M96.63 49.51C94.39 47.27 91.66 46.15 88.46 46.15L75 46.15C73.4 46.15 72.03 45.59 70.91 44.47C69.79 43.34 69.23 41.98 69.23 40.38L69.23 38.46C69.23 34.21 70.73 30.58 73.74 27.58C76.74 24.58 80.37 23.07 84.61 23.07L88.46 23.07C89.5 23.07 90.4 22.69 91.16 21.93C91.92 21.17 92.31 20.27 92.31 19.23L92.31 11.53C92.31 10.49 91.92 9.59 91.16 8.83C90.4 8.07 89.5 7.69 88.46 7.69L84.61 7.69C80.44 7.69 76.47 8.5 72.68 10.12C68.9 11.74 65.62 13.94 62.86 16.7C60.09 19.47 57.9 22.74 56.28 26.53C54.66 30.31 53.84 34.29 53.84 38.46L53.84 80.76C53.84 83.97 54.96 86.69 57.21 88.94C59.45 91.18 62.18 92.3 65.38 92.3L88.46 92.3C91.66 92.3 94.39 91.18 96.63 88.94C98.87 86.69 99.99 83.97 99.99 80.76L99.99 57.69C100 54.48 98.87 51.76 96.63 49.51Z" fill="#151515" fill-opacity="1.000000" fill-rule="nonzero"/>
	</g>
</svg>
